<?xml version="1.0" encoding="utf-8"?>
<!-- Generator: Adobe Illustrator 16.0.0, SVG Export Plug-In . SVG Version: 6.00 Build 0)  -->
<!DOCTYPE svg PUBLIC "-//W3C//DTD SVG 1.1//EN" "http://www.w3.org/Graphics/SVG/1.1/DTD/svg11.dtd">
<svg version="1.1" id="light_x5F_L" xmlns="http://www.w3.org/2000/svg" xmlns:xlink="http://www.w3.org/1999/xlink" x="0px"
	 y="0px" width="86.373px" height="526.131px" viewBox="0 0 86.373 526.131" enable-background="new 0 0 86.373 526.131"
	 xml:space="preserve">
<g>
	
		<rect id="background_x5F_L" x="10.04" y="1.667" fill="#808080" stroke="#000000" stroke-width="2" stroke-miterlimit="10" width="67" height="523"/>
	
		<rect id="light_x5F_L_1_" x="28.04" y="23.667" fill="#FBB03B" stroke="#000000" stroke-width="2" stroke-miterlimit="10" width="34" height="480"/>
	<path fill="none" stroke="#000000" stroke-width="2" stroke-miterlimit="10" d="M9.181,266.575c-3.605,0-7.141-2.092-7.141-4.235
		V262c0-2.143,4.149-1.334,7.753-1.334h68.681c3.604,0,6.566-0.809,6.566,1.334v0.339c0,2.144-3.25,4.235-6.854,4.235"/>
	<path fill="none" stroke="#000000" stroke-width="2" stroke-miterlimit="10" d="M9.181,298.283c-3.605,0-7.141-2.091-7.141-4.235
		v-0.339c0-2.146,4.149-4.042,7.753-4.042h68.681c3.604,0,6.566,1.896,6.566,4.042v0.339c0,2.145-3.25,4.235-6.854,4.235"/>
	<path fill="none" stroke="#000000" stroke-width="2" stroke-miterlimit="10" d="M9.181,338.445c-3.605,0-7.141-2.091-7.141-4.235
		v-0.336c0-2.146,4.149-3.207,7.753-3.207h68.681c3.604,0,6.566,1.062,6.566,3.207v0.336c0,2.145-3.25,4.235-6.854,4.235"/>
	<path fill="none" stroke="#000000" stroke-width="2" stroke-miterlimit="10" d="M9.181,378.608c-3.605,0-7.141-2.09-7.141-4.235
		v-0.338c0-2.145,4.149-2.368,7.753-2.368h68.681c3.604,0,6.566,0.224,6.566,2.368v0.338c0,2.146-3.25,4.235-6.854,4.235"/>
	<path fill="none" stroke="#000000" stroke-width="2" stroke-miterlimit="10" d="M9.181,416.66c-3.605,0-7.141-2.092-7.141-4.236
		v-0.339c0-2.144,4.149-2.418,7.753-2.418h68.681c3.604,0,6.566,0.274,6.566,2.418v0.339c0,2.145-3.25,4.236-6.854,4.236"/>
	<path fill="none" stroke="#000000" stroke-width="2" stroke-miterlimit="10" d="M9.181,448.365c-3.605,0-7.141-2.088-7.141-4.234
		v-0.335c0-2.147,4.149-4.129,7.753-4.129h68.681c3.604,0,6.566,1.981,6.566,4.129v0.335c0,2.146-3.25,4.234-6.854,4.234"/>
	<path fill="none" stroke="#000000" stroke-width="2" stroke-miterlimit="10" d="M9.181,72.097c-3.605,0-7.141-2.089-7.141-4.234
		v-0.338c0-2.145,4.149-4.858,7.753-4.858h68.681c3.604,0,6.566,2.713,6.566,4.858v0.338c0,2.145-3.25,4.234-6.854,4.234"/>
	<path fill="none" stroke="#000000" stroke-width="2" stroke-miterlimit="10" d="M9.181,112.261c-3.605,0-7.141-2.09-7.141-4.234
		v-0.339c0-2.144,4.149-5.021,7.753-5.021h68.681c3.604,0,6.566,2.877,6.566,5.021v0.339c0,2.144-3.25,4.234-6.854,4.234"/>
	<path fill="none" stroke="#000000" stroke-width="2" stroke-miterlimit="10" d="M9.181,152.424c-3.605,0-7.141-2.09-7.141-4.235
		v-0.338c0-2.144,4.149-2.185,7.753-2.185h68.681c3.604,0,6.566,0.041,6.566,2.185v0.338c0,2.145-3.25,4.235-6.854,4.235"/>
	<path fill="none" stroke="#000000" stroke-width="2" stroke-miterlimit="10" d="M9.181,190.474c-3.605,0-7.141-2.089-7.141-4.236
		v-0.337c0-2.144,4.149-2.234,7.753-2.234h68.681c3.604,0,6.566,0.091,6.566,2.234v0.337c0,2.146-3.25,4.236-6.854,4.236"/>
	<path fill="none" stroke="#000000" stroke-width="2" stroke-miterlimit="10" d="M9.181,222.183c-3.605,0-7.141-2.092-7.141-4.237
		v-0.338c0-2.144,4.149-3.941,7.753-3.941h68.681c3.604,0,6.566,1.798,6.566,3.941v0.338c0,2.146-3.25,4.237-6.854,4.237"/>
</g>
</svg>
